<svg xmlns="http://www.w3.org/2000/svg" viewBox="0 0 526.06 526.06"><defs><style>.cls-1{fill:none;stroke:#000;stroke-miterlimit:10;stroke-width:15px;}</style></defs><title>Recurso 1</title><g id="Capa_2"><g id="Capa_1-2"><path class="cls-1" d="M263,5C120.52,5,5,120.52,5,263s115.52,258,258,258,258-115.52,258-258S405.54,5,263,5"/><path class="cls-1" d="M56.26,112.92c-1,0-2.11,0-3.16.06A256.92,256.92,0,0,0,5,263c0,142.51,115.52,258,258,258a257.6,257.6,0,0,0,204.36-100.5c-18.22-27.82-39.07-53.4-68-74.13C356.24,316,305.22,329.75,259.11,317,178.66,295.41,163,203.18,114.88,141.37c-14.68-19.27-36.66-28.45-58.62-28.45"/><path class="cls-1" d="M348.75,171.42c-32.31,0-58.92,24.62-79.83,51.39-26.49,34.34-51,64.75-87.32,87.32-37.28,23.54-76.53,31.39-117.73,42.18a185.46,185.46,0,0,1-40.37,6.8C61.6,454,154.48,521.06,263,521.06c121.77,0,223.82-84.35,251-197.8-23-24.87-42.54-53.09-63.56-81.81-22.56-31.4-48.07-57.89-84.37-67.7a66.68,66.68,0,0,0-17.3-2.33"/></g></g></svg>
